<?xml version="1.0" encoding="UTF-8"?>
<!DOCTYPE svg PUBLIC "-//W3C//DTD SVG 1.1//EN" "http://www.w3.org/Graphics/SVG/1.1/DTD/svg11.dtd">
<!-- Creator: CorelDRAW -->
<svg xmlns="http://www.w3.org/2000/svg" xml:space="preserve" width="5.6187mm" height="4.7628mm" version="1.1" shape-rendering="geometricPrecision" text-rendering="geometricPrecision" image-rendering="optimizeQuality" fill-rule="evenodd" clip-rule="evenodd"
viewBox="0 0 729.8 618.7"
 xmlns:xlink="http://www.w3.org/1999/xlink"
 xmlns:xodm="http://www.corel.com/coreldraw/odm/2003">
 <g id="Слой_x0020_1">
  <metadata id="CorelCorpID_0Corel-Layer"/>
  <g id="_1238978112">
   <ellipse fill="#FFBF95" stroke="white" stroke-width="26" stroke-miterlimit="22.9256" cx="359.1" cy="187.7" rx="182" ry="174.7"/>
   <g>
    <path fill="white" d="M291.9 187.9l0 58.3c0,3.9 3.7,7.6 7.6,7.6l46.9 0 0 -46.5 30.5 0 0 46.5 46.9 0c4.2,0 7.6,-4.3 7.6,-6.9l0 -59.1c0,-1.3 -7.2,-6.7 -8.2,-7.5 -6.9,-5.4 -14.9,-12.6 -22,-18.1l-37.2 -30.7c-3.5,-2.8 -1.5,-2.6 -11.2,5.2 -13,10.5 -26.7,22.4 -39.5,32.5 -1.6,1.2 -2.9,2.5 -4.4,3.6l-15.3 12.6c-0.7,0.5 -1.9,1.2 -1.9,2.3z"/>
    <path fill="white" d="M264.1 176.8c0,2.5 2.6,5.1 4.7,7.5 6.8,8 6.2,7.3 18.1,-2.7 1.8,-1.5 3.4,-2.8 5.2,-4.4 9.2,-8.2 22.7,-18.4 32,-26.7l37.6 -31.4c0.9,0.6 1.5,1.3 2.5,2.1l42.6 35.6c1,0.8 1.7,1.5 2.7,2.2l21.3 17.7c0.9,0.7 1.8,1.5 2.7,2.2 1,0.9 1.7,1.4 2.7,2.3l8.1 6.8c2.8,2.3 4.5,2.7 7.5,-0.4 0.7,-0.8 0.8,-0.9 1.4,-1.7 0.5,-0.7 0.9,-0.9 1.5,-1.6 0.9,-1.1 1.6,-2 2.6,-3.2 1.3,-1.6 2,-2.8 2.1,-3.9l0 -1c-0.4,-2 -2.8,-3.6 -6.5,-6.6l-18.7 -15.6c-1.9,-1.7 -2.6,-0.9 -2.6,-4.3l0 -48c-0.3,-1.7 -1.8,-3.1 -3.8,-3.1l-23.6 0c-4.7,0 -3.8,6.7 -3.8,11.4 0,5.2 0,10.4 0,15.6 -0.9,-0.6 -1.3,-0.8 -2.2,-1.6 -0.9,-0.8 -1.4,-1.1 -2.3,-1.9 -1.5,-1.4 -2.8,-2.4 -4.3,-3.7 -3.4,-2.8 -20.2,-17.2 -22.4,-18.4 -5.2,-2.8 -11.2,-2.4 -16,0.9l-53.9 44.8c-9.1,7.9 -21.4,17.3 -29.9,25 -1.6,1.4 -5.1,3.4 -5.1,6z"/>
   </g>
   <ellipse fill="#F49251" stroke="white" stroke-width="26" stroke-miterlimit="22.9256" cx="194.9" cy="430.9" rx="182" ry="174.7"/>
   <ellipse fill="#84AAE9" stroke="white" stroke-width="26" stroke-miterlimit="22.9256" cx="534.9" cy="422.8" rx="182" ry="174.7"/>
   <g>
    <path fill="white" d="M468.9 480c0,12.8 9.4,21.9 22.2,21.9l78.4 0c9.9,0 16.5,-4.8 20.3,-12.4 4.3,-8.7 0.9,-34.4 -4,-43.4 -1.7,-3.1 -1.4,-2.9 -3.6,-6.2 -4.5,-6.7 -11.4,-10.5 -20.5,-10.5 -5.2,0 -24.7,24.5 -55.5,3.9 -2.2,-1.5 -5.3,-3.9 -7.8,-3.9 -10,0 -17.1,5.3 -21.5,13.1 -6.4,11 -7.8,24.7 -7.8,37.6z"/>
    <path fill="white" d="M528.4 435c8.8,0 14.5,-0.9 21.9,-6.5 1.8,-1.4 2.7,-2.3 4.3,-3.9 5.1,-5.1 8.8,-12.4 9.1,-19.7 0.1,-1.7 0.4,-2.4 0.3,-3.9 -0.4,-5 -1.2,-9.7 -3,-13.3 -1.7,-3.4 -2.4,-4.7 -4.9,-7.5 -10.5,-12.1 -25.2,-15.3 -39.7,-9.1 -3.4,1.4 -7.2,4.3 -9.6,6.7 -1.3,1.3 -2.6,2.9 -3.7,4.4 -5.6,7.6 -7,16.3 -5.6,26 2,13.6 16.3,26.8 31,26.8z"/>
    <path fill="white" d="M446.7 417l0 0.3 0 3.5c0.1,4.1 0.7,7.8 4.6,10.5 6.8,4.8 14.2,3.6 23.5,3.6 1.1,0 4,-3.8 7,-5.8 4.1,-2.7 7.2,-4 12.2,-4.8 3.9,-0.6 4.6,0.1 3.9,-1.4 -0.2,-0.4 -0.4,-0.7 -0.6,-1 -4.4,-6.6 -5.8,-13.7 -5.8,-22 0,-2 0.3,-2.4 0.3,-4.2 -10.6,2.5 -14,3.3 -25.2,-1.2 -6.2,-2.5 -8.2,-5.3 -11.9,-3.6 -6.8,3.2 -7.9,18.7 -7.9,26z"/>
    <path fill="white" d="M580.3 397.7c-4.9,0 -7.6,-1.1 -11.4,-2l0.3 6.9c0,4.4 -1,8.5 -2.2,11.9 -3.8,10.9 -7.7,8.7 -0.6,9.8 6.3,1 9.9,2.9 14.7,6.5 6.4,4.9 -0.8,4.1 17.8,4.1 4.1,0 8.1,-1.9 10.5,-3.6 3.8,-2.7 4.5,-6.5 4.6,-10.5l0 -4c-0,-7.4 -1.1,-22.6 -7.9,-25.8 -2.9,-1.4 -3.9,-0.2 -6.1,0.9 -2,1 -3.5,1.8 -5.8,2.7 -4.2,1.7 -8.1,3.2 -13.8,3.2z"/>
    <path fill="white" d="M558.1 367.7c0,24.5 32,31.4 42.6,10.2 2.9,-5.9 2.9,-13.1 0.2,-19.1 -3.2,-7.1 -11,-13.1 -19,-13.1l-2.3 0c-11.5,0 -21.6,10.4 -21.6,21.9z"/>
    <path fill="white" d="M457.8 367.4l0 1.6c0,11.7 10.4,21.5 22.2,21.5 12.6,0 22.5,-9.9 22.5,-22.9 0,-11.5 -10.1,-21.9 -21.6,-21.9 -6.4,0 -10.6,1.3 -15.3,5.3l-5.9 7.5c-1.1,2.6 -2,5.2 -2,8.7z"/>
   </g>
   <g>
    <g>
     <path fill="white" d="M167.7 354l52.8 0 0 13 -52.8 0 0 -13zm119 28.4l0 41 -185.2 0 0 -40.9c0,-4.8 3.3,-9.4 6.1,-11.6 3.6,-2.9 7.3,-3.9 13.8,-3.9l32.9 0 0 -16.3c0,-6.2 4.9,-10.1 11.2,-10.1l57.2 0c6.4,0 11.2,4 11.2,10.1l0 16.3 32.9 0c6.5,0 10.2,1 13.8,3.9 2.7,2.2 6,6.7 6.1,11.5z"/>
     <polygon fill="white" points="180.7,446.6 207.5,446.6 207.5,433.2 180.7,433.2 "/>
    </g>
    <path fill="white" d="M216.7 432.8l69.5 0 0 52c0,0 -4,14.1 -16,14.5 -12.1,0.4 -154.5,-0.2 -154.5,-0.2 0,0 -14.7,-1.3 -14.7,-16.8 0,-15.5 0,-49.4 0,-49.4l69.2 0 0.3 17c0,0 0.4,5.9 6.9,6.1 6.5,0.2 30.3,0.1 31.4,0 1,-0.1 7.8,0.1 7.8,-7.7 0.1,-9.2 0.2,-15.7 0.2,-15.7z"/>
   </g>
   <path fill="#FFBF95" stroke="white" stroke-width="26" stroke-miterlimit="22.9256" d="M187 252.7c-6.6,-18.3 -9.9,-37.5 -9.9,-56.9 0,-96.5 81.5,-174.7 182,-174.7 100.5,0 182,78.2 182,174.7 0,96.5 -78.1,174.7 -178.6,174.7 0,0 -3.3,0 -3.3,0 -13.2,-66.8 -68.3,-106.5 -169.7,-116.3 -0.9,-0.1 -1.5,-1.1 -2.3,-1.6z"/>
   <g>
    <path fill="white" d="M291.9 196l0 58.3c0,3.9 3.7,7.6 7.6,7.6l46.9 0 0 -46.5 30.5 0 0 46.5 46.9 0c4.2,0 7.6,-4.3 7.6,-6.9l0 -59.1c0,-1.3 -7.2,-6.7 -8.2,-7.5 -6.9,-5.4 -14.9,-12.6 -22,-18.1l-37.2 -30.7c-3.5,-2.8 -1.5,-2.6 -11.2,5.2 -13,10.5 -26.7,22.4 -39.5,32.5 -1.6,1.2 -2.9,2.5 -4.4,3.7l-15.3 12.6c-0.7,0.5 -1.9,1.2 -1.9,2.3z"/>
    <path fill="white" d="M264.1 184.9c0,2.5 2.6,5.1 4.7,7.5 6.8,8.1 6.2,7.3 18.1,-2.7 1.8,-1.5 3.4,-2.8 5.2,-4.4 9.2,-8.2 22.7,-18.4 32,-26.7l37.6 -31.4c0.9,0.6 1.5,1.3 2.5,2.1l42.6 35.6c1,0.8 1.7,1.5 2.7,2.2l21.3 17.7c0.9,0.7 1.8,1.5 2.7,2.2 1,0.9 1.7,1.4 2.7,2.3l8.1 6.7c2.8,2.3 4.5,2.7 7.5,-0.4 0.7,-0.8 0.8,-0.9 1.4,-1.7 0.5,-0.7 0.9,-0.9 1.5,-1.6 0.9,-1.1 1.6,-2 2.6,-3.1 1.3,-1.6 2,-2.9 2.1,-3.9l0 -1c-0.4,-2 -2.8,-3.6 -6.5,-6.6l-18.7 -15.6c-1.9,-1.7 -2.6,-1 -2.6,-4.3l0 -48c-0.3,-1.7 -1.8,-3.1 -3.8,-3.1l-23.6 0c-4.7,0 -3.8,6.7 -3.8,11.4 0,5.2 0,10.4 0,15.6 -0.9,-0.6 -1.3,-0.8 -2.2,-1.6 -0.9,-0.8 -1.4,-1.1 -2.3,-1.9 -1.5,-1.4 -2.8,-2.4 -4.3,-3.7 -3.4,-2.8 -20.2,-17.2 -22.4,-18.4 -5.2,-2.8 -11.2,-2.4 -16,0.9l-53.9 44.8c-9.1,7.9 -21.4,17.3 -29.9,25 -1.6,1.4 -5.1,3.4 -5.1,6z"/>
   </g>
  </g>
 </g>
</svg>
